<?xml version="1.0" encoding="UTF-8" standalone="no"?>
<!DOCTYPE svg PUBLIC "-//W3C//DTD SVG 1.1//EN" "http://www.w3.org/Graphics/SVG/1.1/DTD/svg11.dtd">
<svg width="100%" height="100%" viewBox="0 0 1902 994" version="1.1" xmlns="http://www.w3.org/2000/svg" xmlns:xlink="http://www.w3.org/1999/xlink" xml:space="preserve" xmlns:serif="http://www.serif.com/" style="fill-rule:evenodd;clip-rule:evenodd;stroke-linejoin:round;stroke-miterlimit:2;">
    <g transform="matrix(1,0,0,1,-249.747936,-311.489328)">
        <rect x="249.93" y="311.489" width="1900.877" height="993.438"/>
        <g transform="matrix(7.076032,0,0,7.076032,-3190.83405,-9467.916234)">
            <g transform="matrix(50,0,0,50,735.208279,1495.544159)">
            </g>
            <text x="504.858px" y="1495.544px" style="font-family:'Belwe-Bold', 'Belwe', serif;font-weight:700;font-size:50px;fill:white;">o <tspan x="545.408px " y="1495.544px ">C</tspan>amiño</text>
        </g>
        <g transform="matrix(2.875249,0,0,2.875249,243.636801,304.940275)">
            <path d="M415.59,41.971C405.813,42.428 406.095,39.703 397.214,44.157C392.217,46.663 376.938,41.453 358.025,50.025C357.764,49.632 354.271,43.944 354.245,43.538C353.552,32.717 351.141,33.391 351.206,32.475C351.668,25.903 352.184,26.044 352.161,25.48C351.788,16.374 339.818,19.833 341.684,26.452C344.047,34.835 339.624,40.972 336.954,49.529C332.38,46.277 332.001,48.092 318.5,48.191C297.738,48.344 297.721,47.95 295.487,48.449C294.789,48.605 195.503,48.502 189.426,50.292C167.805,56.658 125.705,48.156 118.688,52.767C108.572,59.414 94.857,50.694 84.438,53.249C56.15,60.186 55.926,53.881 2.259,52.494C2.234,3.917 1.628,2.296 4.484,2.278C5.277,2.273 600.658,2.321 652.499,2.325C653.381,2.326 663.301,2.326 663.306,4.512C663.31,6.431 663.264,6.361 663.268,28.5C663.277,32.835 663.285,37.17 663.293,41.505C659.275,42.334 612.44,39.074 605.509,39.925C593.528,41.397 593.636,41.14 568.493,41.146C510.563,41.159 510.289,37.822 505.726,39.922C494.101,45.271 485.539,40.454 480.585,41.878C470.452,44.791 436.863,41.274 431.5,40.95L430.078,40.545C428.299,32.961 426.72,33.091 428.167,25.468C428.819,22.033 416.502,11.323 418.112,28.575C418.692,34.793 417.021,35.885 415.59,41.971Z" style="fill:rgb(78,20,122);"/>
            <g transform="matrix(1,0,0,1.222495,0,-14.030332)">
                <path d="M336.954,49.529C336.932,50.527 337.215,51.516 337.193,52.514C337.042,59.216 329.441,60.352 332.034,79.528L330.5,78.725C330.411,78.766 259.641,78.023 253.479,77.959C251.624,77.939 249.248,75.91 231.497,75.549C192.301,74.753 189.693,75.791 186.334,77.128C176.983,80.85 104.792,80.111 96.401,82.051C90.877,83.327 35.111,79.912 28.344,83.221C28.182,83.301 8.85,83.987 2.25,83.505C2.253,73.168 2.256,62.831 2.259,52.494C55.926,53.881 56.15,60.186 84.438,53.249C94.857,50.694 108.572,59.414 118.688,52.767C125.705,48.156 167.805,56.658 189.426,50.292C195.503,48.502 294.789,48.605 295.487,48.449C297.721,47.95 297.738,48.344 318.5,48.191C332.001,48.092 332.38,46.277 336.954,49.529Z" style="fill:rgb(21,58,152);"/>
            </g>
            <path d="M332.034,79.528C332.023,80.209 332.986,87.13 330.4,88.178C329.836,88.406 326.439,89.784 326.104,94.449C325.615,101.255 323.769,100.624 322.407,107.452C315.848,106.659 316.007,106.946 309.503,107.499C308.246,103.478 308.559,103.566 307.328,99.563C306.244,96.041 300.591,94.363 297.391,109.432C264.823,107.519 264.887,109.074 232.5,106.502C189.502,103.089 152.415,108.646 145.529,109.678C135.143,111.234 135.198,105.529 120.442,108.239C110.168,110.127 16.371,106.386 2.284,110.459C2.273,101.474 2.262,92.49 2.25,83.505C8.85,83.987 28.182,83.301 28.344,83.221C35.111,79.912 90.877,83.327 96.401,82.051C104.792,80.111 176.983,80.85 186.334,77.128C189.693,75.791 192.301,74.753 231.497,75.549C249.248,75.91 251.624,77.939 253.479,77.959C259.641,78.023 330.411,78.766 330.5,78.725L332.034,79.528Z" style="fill:rgb(80,22,122);"/>
            <path d="M475.209,113.734C475.233,113.728 474.68,111.288 488.495,111.819C539.525,113.779 540.07,109.178 556.531,115.421C566.996,119.39 567.448,113.559 578.453,115.92C579.476,116.14 579.434,114.517 591.525,116.31C596.305,117.019 605.342,115.944 606.536,115.802C620.114,114.186 620.003,114.563 633.523,113.755C638.126,113.48 637.926,110.68 646.501,112.494C647.842,112.777 653.682,114.012 663.367,115.474C663.348,135.834 663.328,156.194 663.309,176.554C655.832,175.38 621.007,149.708 616.547,150.759C600.838,154.46 595.96,174.315 576.709,152.299C569.076,143.57 567.152,147.179 556.688,151.926C542.19,158.503 540.903,162.292 527.495,153.507C517.951,147.254 478.112,176.175 477.998,163.489C477.581,117.463 479.839,115.63 475.209,113.734Z" style="fill:rgb(18,65,154);"/>
            <path d="M2.187,122.568C24.558,116.029 55.802,122.218 84.547,117.765C96.372,115.933 95.636,122.105 107.506,121.783C109.471,121.73 114.708,124.054 115.545,124.069C130.692,124.343 130.64,123.063 145.484,125.575C146.651,125.773 176.242,123.379 176.443,123.309C183.064,121.033 183.484,121.42 189.788,126.063C194.583,129.594 231.176,124.409 236.602,127.731C210.442,140.094 209.482,162.315 201.186,170.169C199.226,172.025 198.197,171.436 174.577,149.417C166.48,141.869 164.126,142.856 155.691,151.688C138.733,169.443 136.449,182.35 125.433,175.634C102.118,161.421 86.656,164.206 67.974,134.23C57.375,117.226 34.085,159.428 28.122,166.207C22.43,172.677 5.497,177.618 2.412,177.47C2.088,149.876 2.287,150.082 2.187,122.568Z" style="fill:rgb(20,66,155);"/>
            <g transform="matrix(1,0,0,1.057411,-0,-3.003672)">
                <path d="M430.078,40.545L431.5,40.95C436.863,41.274 470.452,44.791 480.585,41.878C485.539,40.454 494.101,45.271 505.726,39.922C510.289,37.822 510.563,41.159 568.493,41.146C593.636,41.14 593.528,41.397 605.509,39.925C612.44,39.074 659.275,42.334 663.293,41.505C663.287,53.836 663.28,66.168 663.274,78.499L662.5,78.326C653.781,77.106 608.581,70.783 552.507,74.63C515.269,77.186 471.568,74.202 441.479,76.163C441.238,76.178 440.788,76.208 438.528,75.511C440.936,62.348 432.91,56.715 432.873,53.481C432.811,48.107 433.332,48.025 432.165,46.798C429.717,44.225 430.203,44.089 430.078,40.545Z" style="fill:rgb(20,59,151);"/>
            </g>
            <path d="M421.433,26.567L421.615,27.45L421.749,28.543C421.343,36.717 419.617,36.256 418.365,44.483C418.112,46.26 418.182,46.135 418.112,46.26C414.916,51.96 416.764,52.415 414.977,60.757C412.287,60.916 411.879,60.697 411.105,63.389C409.226,97.749 413.667,122.355 407.155,103.643C406.911,102.941 407.361,103.061 405.503,94.498C403.673,86.058 399.692,123.7 399.236,107.561C398.748,90.256 400.749,90.59 401.108,90.169C401.191,90.072 399.881,83.06 399.766,82.443C399.683,81.998 397.985,72.904 394.807,79.722C391.831,86.109 390.979,74.127 390.937,73.546C390.208,63.295 386.773,64.502 386.488,61.512C385.876,55.114 387.326,50.206 383.878,53.869C383.297,54.486 384.63,60.684 384.316,61.276C382.926,63.888 379.581,63.35 379.451,72.508C379.442,73.178 379.247,86.974 375.16,79.706C374.413,78.376 373.24,75.502 372.166,79.353C367.912,94.605 374.579,127.604 367.948,103.388C367.409,101.421 370.109,96.572 365.517,93.527C365.263,94.228 365.009,94.929 364.755,95.63C364.358,96.601 360.402,119.601 359.977,108.399C359.114,85.618 359.992,75.363 360.236,72.502C360.313,71.611 360.736,66.659 358.564,61.446C358.213,60.604 358.027,60.947 355.087,60.695C352.301,45.228 351.855,45.482 351.319,44.56C350.758,35.726 347.721,36.277 348.334,27.435C348.827,20.327 344.707,25.57 344.997,26.286C348.394,34.685 343.458,34.488 342.698,44.513C340.867,52.985 340.647,52.762 339.443,61.471L338.86,61.961C332.85,61.651 335.78,65.308 335.353,88.501C335.229,95.216 337.516,95.183 335.739,101.626C335.522,102.412 334.466,102.671 333.879,102.081C333.288,101.488 333.015,101.214 331.169,91.979C328.064,93.77 330.117,97.521 329.131,99.272C322.634,110.817 326.358,111.712 325.756,112.636C322.159,118.167 325.36,136.585 319.431,132.663C317.704,131.521 317.707,133.406 315.57,133.09C307.436,131.889 312.84,118.876 312.142,117.747C311.906,117.366 308.706,119.534 304.831,104.226C302.144,93.608 302.686,113.14 297.252,117.127C294.393,119.225 296.728,149.034 295.854,167.526C295.715,170.475 292.874,173.429 260.758,156.109C254.542,152.756 244.943,130.273 238.469,132.353C223.85,137.049 209.092,166.899 207.349,170.425C201.602,182.05 193.1,175.578 170.314,152.703C163.918,146.282 160.493,153.384 150.83,165.745C136.957,183.491 134.681,187.43 122.751,180.112C101.435,167.039 82.085,168.65 66.077,140.747C58.394,127.354 44.649,153.237 32.113,169.176C26.803,175.927 7.005,183.181 2.524,183.482C1.863,180.452 2.169,180.619 2.412,177.47C5.497,177.618 22.43,172.677 28.122,166.207C34.085,159.428 57.375,117.226 67.974,134.23C86.656,164.206 102.118,161.421 125.433,175.634C136.449,182.35 138.733,169.443 155.691,151.688C164.126,142.856 166.48,141.869 174.577,149.417C198.197,171.436 199.226,172.025 201.186,170.169C209.482,162.315 210.442,140.094 236.602,127.731C240.993,127.098 240.902,126.899 245.295,127.848C251.412,131.981 258.895,146.573 259.812,148.362C260.862,150.408 292.876,166.768 292.959,163.664C293.55,141.576 292.797,124.809 292.646,121.434C292.438,114.734 294.133,115.297 297.391,109.432C300.591,94.363 306.244,96.041 307.328,99.563C308.559,103.566 308.246,103.478 309.503,107.499C310.549,114.428 314.847,112.638 315.523,119.51C314.646,124.937 311.898,128.26 317.484,127.387C323.293,126.479 320.785,124.166 320.707,118.404C320.899,112.719 322.793,113.113 322.407,107.452C323.769,100.624 325.615,101.255 326.104,94.449C326.439,89.784 329.836,88.406 330.4,88.178C332.986,87.13 332.023,80.209 332.034,79.528C329.441,60.352 337.042,59.216 337.193,52.514C337.215,51.516 336.932,50.527 336.954,49.529C339.624,40.972 344.047,34.835 341.684,26.452C339.818,19.833 351.788,16.374 352.161,25.48C352.184,26.044 351.668,25.903 351.206,32.475C351.141,33.391 353.552,32.717 354.245,43.538C354.271,43.944 357.072,48.17 357.332,48.563C356.831,58.036 364.443,64.857 363.523,73.503C363.402,74.632 360.629,100.671 366.343,87.414C369.372,80.389 367.951,80.051 371.403,73.427C372.528,71.27 375.53,73.558 376.096,70.438C377.535,62.51 381.855,63.393 380.378,55.507C379.366,50.104 391.86,45.571 389.708,57.527C389.638,57.914 394.933,72.338 395.493,72.379C403.709,72.986 400.238,77.878 405.538,89.466C406.954,90.082 407.417,90.05 407.481,88.494C408.086,73.66 406.15,73.748 406.415,72.492C409.151,59.523 409.082,59.592 409.879,58.791C414.896,53.743 411.24,52.48 412.481,48.493C413.777,44.33 415.389,44.955 415.59,40.509C417.021,34.423 418.692,34.793 418.112,28.575C416.502,11.323 428.819,22.033 428.167,25.468C426.72,33.091 428.299,32.961 430.078,40.545C430.203,44.089 429.717,44.225 432.165,46.798C433.332,48.025 432.811,48.107 432.873,53.481C432.91,56.715 440.936,62.348 438.528,75.511C438.398,76.447 437.085,85.898 438.635,87.321C440.883,89.385 442.496,87.987 444.284,93.553C446.097,99.194 445.978,99.118 448.322,104.641C447.659,110.385 449.658,109.987 450.794,115.591C450.639,124.207 447.365,128.098 453.488,127.147C457.564,126.514 454.737,121.298 455.295,116.465C459.142,112.145 460.756,110.755 461.396,104.417C461.516,103.969 462.821,99.091 462.997,98.843C467.237,92.895 468.28,98.041 471.598,104.417C472.017,109.545 472.708,109.175 475.209,113.734C479.839,115.63 477.581,117.463 477.998,163.489C478.112,176.175 517.951,147.254 527.495,153.507C540.903,162.292 542.19,158.503 556.688,151.926C567.152,147.179 569.076,143.57 576.709,152.299C595.96,174.315 600.838,154.46 616.547,150.759C621.007,149.708 655.832,175.38 663.309,176.554C663.574,180.064 663.768,179.921 663.505,183.503C644.404,175.462 621.72,154.978 615.5,157.499C597.159,164.931 590.989,172.789 578.559,162.428C570.851,156.003 571.786,150.358 562.581,154.672C540.8,164.88 539.9,164.468 529.589,160.277C511.006,152.723 495.254,174.698 476.437,171.691C472.706,171.095 474.061,169.121 474.5,124.5C474.543,120.116 475.714,119.714 472.517,116.485C468.197,112.121 466.427,90.775 464.899,106.585C463.987,116.037 458.743,115.812 458.719,118.538C458.628,129.225 461.083,131.14 456.454,132.276C455.152,132.596 450.984,132.399 450.509,132.377C445.042,132.118 449.127,116.708 445.639,113.349C444.238,111.999 445.35,104.703 444.106,102.735C441.989,99.386 441.753,99.59 441.066,95.572C440.399,91.664 439.404,92.338 439.165,92.5C439.099,92.912 432.551,117.095 434.932,95.555C436.458,81.752 434.062,44.871 432.385,65.413C430.295,91.008 432.01,53.805 427.526,46.483C427.443,46.348 427.526,46.483 427.026,44.554C426.516,37.773 423.907,38.261 424.237,31.485C424.362,28.906 424.014,29.055 424.412,26.434C424.704,22.864 419.515,23.464 421.433,26.567Z" style="fill:white;"/>
            <path d="M438.528,75.511C440.788,76.208 441.238,76.178 441.479,76.163C471.568,74.202 515.269,77.186 552.507,74.63C608.581,70.783 653.781,77.106 662.5,78.326L663.274,78.499C663.276,89.641 663.262,89.468 663.444,100.508C662.934,100.135 661.644,98.197 656.497,98.338C639.878,98.794 640.053,97.269 623.498,97.319C605.578,97.374 605.975,102.819 588.466,100.8C557.072,97.182 557.102,101.286 554.464,100.621C535.966,95.963 507.232,99.319 503.578,98.181C500.514,97.226 500.646,97.109 486.521,96.182C477.559,95.594 480.488,102.904 471.598,104.417C468.28,98.041 467.237,92.895 462.997,98.843C462.821,99.091 461.516,103.969 461.396,104.417C454.843,104.561 455.014,104.546 448.322,104.641C445.978,99.118 446.097,99.194 444.284,93.553C442.496,87.987 440.883,89.385 438.635,87.321C437.085,85.898 438.398,76.447 438.528,75.511Z" style="fill:rgb(79,22,121);"/>
            <path d="M297.391,109.432C294.133,115.297 292.438,114.734 292.646,121.434C285.62,121.702 285.899,122.525 279.353,125.123C271.993,128.044 270.466,120.571 255.311,128.046C252.507,129.429 247.161,126.137 246.49,126.351C245.882,126.545 245.904,127.654 245.295,127.848C240.902,126.899 240.993,127.098 236.602,127.731C231.176,124.409 194.583,129.594 189.788,126.063C183.484,121.42 183.064,121.033 176.443,123.309C176.242,123.379 146.651,125.773 145.484,125.575C130.64,123.063 130.692,124.343 115.545,124.069C114.708,124.054 109.471,121.73 107.506,121.783C95.636,122.105 96.372,115.933 84.547,117.765C55.802,122.218 24.558,116.029 2.187,122.568C2.219,118.532 2.251,114.495 2.284,110.459C16.371,106.386 110.168,110.127 120.442,108.239C135.198,105.529 135.143,111.234 145.529,109.678C152.415,108.646 189.502,103.089 232.5,106.502C264.887,109.074 264.823,107.519 297.391,109.432Z" style="fill:rgb(216,162,70);"/>
            <path d="M663.444,100.508C663.556,108.174 663.516,107.979 663.367,115.474C653.682,114.012 647.842,112.777 646.501,112.494C637.926,110.68 638.126,113.48 633.523,113.755C620.003,114.563 620.114,114.186 606.536,115.802C605.342,115.944 596.305,117.019 591.525,116.31C579.434,114.517 579.476,116.14 578.453,115.92C567.448,113.559 566.996,119.39 556.531,115.421C540.07,109.178 539.525,113.779 488.495,111.819C474.68,111.288 475.233,113.728 475.209,113.734C472.708,109.175 472.017,109.545 471.598,104.417C480.488,102.904 477.559,95.594 486.521,96.182C500.646,97.109 500.514,97.226 503.578,98.181C507.232,99.319 535.966,95.963 554.464,100.621C557.102,101.286 557.072,97.182 588.466,100.8C605.975,102.819 605.578,97.374 623.498,97.319C640.053,97.269 639.878,98.794 656.497,98.338C661.644,98.197 662.934,100.135 663.444,100.508Z" style="fill:rgb(217,162,68);"/>
            <path d="M415.59,40.509C415.389,44.955 413.777,44.33 412.481,48.493C411.24,52.48 414.896,53.743 409.879,58.791C409.082,59.592 409.151,59.523 406.415,72.492C406.15,73.748 408.086,73.66 407.481,88.494C407.417,90.05 406.954,90.082 405.538,89.466C400.238,77.878 403.709,72.986 395.493,72.379C394.933,72.338 389.638,57.914 389.708,57.527C391.86,45.571 379.366,50.104 380.378,55.507C381.855,63.393 377.535,62.51 376.096,70.438C375.53,73.558 372.528,71.27 371.403,73.427C367.951,80.051 369.372,80.389 366.343,87.414C360.629,100.671 363.402,74.632 363.523,73.503C364.443,64.857 356.831,58.036 357.332,48.563C376.246,39.991 391.601,46.243 396.599,43.736C405.479,39.283 405.813,40.966 415.59,40.509Z" style="fill:rgb(25,69,159);"/>
            <path d="M292.646,121.434C292.797,124.809 293.55,141.576 292.959,163.664C292.876,166.768 260.862,150.408 259.812,148.362C258.895,146.573 251.412,131.981 245.295,127.848C245.904,127.654 245.882,126.545 246.49,126.351C247.161,126.137 252.507,129.429 255.311,128.046C270.466,120.571 271.993,128.044 279.353,125.123C285.899,122.525 285.62,121.702 292.646,121.434Z" style="fill:rgb(20,68,154);"/>
            <path d="M448.322,104.641C455.014,104.546 454.843,104.561 461.396,104.417C460.756,110.755 459.142,112.145 455.295,116.465C452.248,115.231 452.045,114.259 450.794,115.591C449.658,109.987 447.659,110.385 448.322,104.641Z" style="fill:rgb(217,165,74);"/>
            <path d="M309.503,107.499C316.007,106.946 315.848,106.659 322.407,107.452C322.793,113.113 320.899,112.719 320.707,118.404C317.914,118.596 318.119,118.69 315.523,119.51C314.847,112.638 310.549,114.428 309.503,107.499Z" style="fill:rgb(217,168,91);"/>
            <path d="M450.794,115.591C452.045,114.259 452.248,115.231 455.295,116.465C454.737,121.298 457.564,126.514 453.488,127.147C447.365,128.098 450.639,124.207 450.794,115.591Z" style="fill:rgb(46,93,176);"/>
            <path d="M320.707,118.404C320.785,124.166 323.293,126.479 317.484,127.387C311.898,128.26 314.646,124.937 315.523,119.51C318.119,118.69 317.914,118.596 320.707,118.404Z" style="fill:rgb(28,76,157);"/>
            <path d="M365.517,93.527C365.208,95.114 365.252,94.992 365.208,95.114C365.08,95.469 364.918,95.178 364.755,95.63C365.009,94.929 365.263,94.228 365.517,93.527Z" style="fill:rgb(178,176,178);"/>
        </g>
        <g transform="matrix(0.271276,0,0,0.271276,441.367735,871.161128)">
            <text x="808.815px" y="1235.378px" style="font-family:'Helvetica-Bold', 'Helvetica';font-weight:700;font-size:286.042px;fill:white;">A<tspan x="1160.98px 1497.363px 1849.529px 2185.912px 2485.143px 2837.309px 3205.397px " y="1235.378px 1235.378px 1235.378px 1235.378px 1235.378px 1235.378px 1235.378px ">PRETAOS</tspan></text>
            <g transform="matrix(0.99,0,0,1,35.417796,0)">
                <text x="3541.78px" y="1235.378px" style="font-family:'Helvetica-Bold', 'Helvetica';font-weight:700;font-size:286.042px;fill:white;">~</text>
            </g>
            <g transform="matrix(286.041901,0,0,286.041901,4924.410061,1235.378107)">
            </g>
            <text x="3851.293px" y="1235.378px" style="font-family:'Helvetica-Bold', 'Helvetica';font-weight:700;font-size:286.042px;fill:white;">2<tspan x="4155.971px 4460.649px 4765.327px " y="1235.378px 1235.378px 1235.378px ">026</tspan></text>
        </g>
    </g>
</svg>
